<svg xmlns="http://www.w3.org/2000/svg" width="24" height="24" viewBox="0 0 24 24"><defs><style>.a{fill:none;}.b{fill:#fff;}.c{fill:#cdad67;}.d{fill:#ffeac0;}</style></defs><rect class="a" width="24" height="24"/><path class="b" d="M3,12.5a.5.5,0,0,1,0-1H13a.5.5,0,0,1,0,1Z"/><path class="b" d="M17,12.5a.5.5,0,0,1,0-1h4a.5.5,0,0,1,0,1Z"/><path class="c" d="M21,11H17a1,1,0,0,0,0,2h4a1,1,0,0,0,0-2Z"/><path class="d" d="M21,6H3A1,1,0,0,0,3,8H21a1,1,0,0,0,0-2Zm0,10H3a1,1,0,0,0,0,2H21a1,1,0,0,0,0-2Zm-8-5H3a1,1,0,0,0,0,2H13a1,1,0,0,0,0-2Z"/></svg>